<svg xmlns="http://www.w3.org/2000/svg" xmlns:xlink="http://www.w3.org/1999/xlink" width="1920" zoomAndPan="magnify" viewBox="0 0 1440 809.999993" height="1080" preserveAspectRatio="xMidYMid meet" version="1.0"><defs><clipPath id="b9c3c0153b"><path d="M 374.496094 357 L 877 357 L 877 748 L 374.496094 748 Z M 374.496094 357 " clip-rule="nonzero"/></clipPath><clipPath id="7bf2ad14b3"><path d="M 861 270 L 1064.964844 270 L 1064.964844 479 L 861 479 Z M 861 270 " clip-rule="nonzero"/></clipPath></defs><g clip-path="url(#b9c3c0153b)"><path fill="#f38e64" d="M 428.675781 500.597656 C 455.492188 452.511719 492.203125 386.679688 558.703125 365 C 694.765625 320.621094 893.339844 481.214844 875.078125 590.824219 C 858.316406 691.238281 663.035156 727.957031 627.308594 734.691406 C 577.667969 744.015625 432.886719 771.25 387.683594 700.527344 C 350.011719 641.621094 402.433594 547.59375 428.675781 500.597656 Z M 428.675781 500.597656 " fill-opacity="1" fill-rule="nonzero"/></g><path fill="#e5aeac" d="M 565.824219 205.742188 C 592.640625 157.660156 629.351562 91.824219 695.851562 70.144531 C 831.914062 25.765625 1030.488281 186.363281 1012.226562 295.972656 C 995.464844 396.382812 800.183594 433.101562 764.457031 439.839844 C 714.816406 449.160156 642.410156 422.339844 597.238281 351.621094 C 559.597656 292.714844 539.613281 252.773438 565.824219 205.742188 Z M 565.824219 205.742188 " fill-opacity="1" fill-rule="nonzero"/><g clip-path="url(#7bf2ad14b3)"><path fill="#b7dbe7" d="M 864.765625 349.769531 C 870.578125 320.332031 899.40625 287.636719 935.703125 275.792969 C 1009.894531 251.589844 1073.9375 318.703125 1063.976562 378.472656 C 1054.847656 433.261719 992.59375 473.777344 973.117188 477.417969 C 946.046875 482.527344 906.554688 467.871094 881.910156 429.300781 C 861.351562 397.214844 858.765625 380.132812 864.765625 349.769531 Z M 864.765625 349.769531 " fill-opacity="1" fill-rule="nonzero"/></g></svg>